<svg xmlns="http://www.w3.org/2000/svg" xmlns:xlink="http://www.w3.org/1999/xlink" xmlns:lucid="lucid" width="760" height="1060"><g transform="translate(-40 -120)" lucid:page-tab-id="0_0"><path d="M0 0h1323.2v1870.4H0z" fill="#fff"/><path d="M291.33 140H410l-21.33 80H270z" stroke="#000" stroke-width="2" fill="#c7e8ac"/><use xlink:href="#a" transform="matrix(1,0,0,1,275,145) translate(13.529999999999996 38.80625)"/><use xlink:href="#b" transform="matrix(1,0,0,1,275,145) translate(61.48 38.80625)"/><use xlink:href="#c" transform="matrix(1,0,0,1,275,145) translate(76.48 38.80625)"/><path d="M441.33 140H560l-21.33 80H420z" stroke="#000" stroke-width="2" fill="#c7e8ac"/><use xlink:href="#a" transform="matrix(1,0,0,1,425,145) translate(13.529999999999996 38.80625)"/><use xlink:href="#d" transform="matrix(1,0,0,1,425,145) translate(61.48 38.80625)"/><use xlink:href="#c" transform="matrix(1,0,0,1,425,145) translate(76.48 38.80625)"/><path d="M76 680h184l-16 60H60z" stroke="#000" stroke-width="2" fill="#c7e8ac"/><use xlink:href="#e" transform="matrix(1,0,0,1,65,685) translate(23.279999999999994 30.025)"/><use xlink:href="#f" transform="matrix(1,0,0,1,65,685) translate(111.18 30.025)"/><path d="M116 430h144l-16 60H100z" stroke="#000" stroke-width="2" fill="#c7e8ac"/><use xlink:href="#g" transform="matrix(1,0,0,1,105,435) translate(33.13 17.525)"/><use xlink:href="#h" transform="matrix(1,0,0,1,105,435) translate(80.03 17.525)"/><use xlink:href="#i" transform="matrix(1,0,0,1,105,435) translate(27.604999999999997 39.125)"/><path d="M486 1080c24.3 0 44 17.9 44 40s-19.7 40-44 40H354c-24.3 0-44-17.9-44-40s19.7-40 44-40z" stroke="#000" stroke-width="2" fill="#ffbbb1"/><use xlink:href="#j" transform="matrix(1,0,0,1,315,1085) translate(5.200000000000003 38.4625)"/><use xlink:href="#k" transform="matrix(1,0,0,1,315,1085) translate(125 38.4625)"/><path d="M360 300h120v80H360z" stroke="#000" stroke-width="2" fill="#c1e4f7"/><path d="M372 300v80m96-80v80" stroke="#000" stroke-width="2" fill="none"/><use xlink:href="#l" transform="matrix(1,0,0,1,380,305) translate(6.049999999999997 39.1)"/><path d="M340 222v38h78v20.5" stroke="#000" stroke-width="2" fill="none"/><path d="M341 222.03h-2V221h2z"/><path d="M418 295.76l-4.64-14.26h9.28z" stroke="#000" stroke-width="2"/><path d="M490 222v38h-70v20.5" stroke="#000" stroke-width="2" fill="none"/><path d="M491 222.03h-2V221h2z"/><path d="M420 295.76l-4.64-14.26h9.28z" stroke="#000" stroke-width="2"/><path d="M310 420h220v80H310z" stroke="#000" stroke-width="2" fill="#ffeca9"/><path d="M332 420v80m176-80v80" stroke="#000" stroke-width="2" fill="none"/><use xlink:href="#m" transform="matrix(1,0,0,1,342.5,425) translate(3.625 27.799999999999997)"/><use xlink:href="#n" transform="matrix(1,0,0,1,342.5,425) translate(38.525 27.799999999999997)"/><use xlink:href="#o" transform="matrix(1,0,0,1,342.5,425) translate(57.55 49.4)"/><path d="M254.03 460h36.47" stroke="#000" stroke-width="2" fill="none"/><path d="M254.06 461h-1.3l.54-2h.76z"/><path d="M305.76 460l-14.26 4.64v-9.28z" stroke="#000" stroke-width="2"/><path d="M420 382v18.5" stroke="#000" stroke-width="2" fill="none"/><path d="M421 382.03h-2V381h2z"/><path d="M420 415.76l-4.64-14.26h9.28z" stroke="#000" stroke-width="2"/><path d="M290 560h260v60H290z" stroke="#000" stroke-width="2" fill="#ffeca9"/><path d="M316 560v60m208-60v60" stroke="#000" stroke-width="2" fill="none"/><use xlink:href="#p" transform="matrix(1,0,0,1,327.5,565) translate(10.299999999999997 28.6)"/><use xlink:href="#q" transform="matrix(1,0,0,1,327.5,565) translate(100.15 28.6)"/><use xlink:href="#f" transform="matrix(1,0,0,1,327.5,565) translate(120.15 28.6)"/><path d="M420 502v38.5" stroke="#000" stroke-width="2" fill="none"/><path d="M421 502.03h-2V501h2z"/><path d="M420 555.76l-4.64-14.26h9.28z" stroke="#000" stroke-width="2"/><path d="M340 680h160v60H340z" stroke="#000" stroke-width="2" fill="#c1e4f7"/><path d="M356 680v60m128-60v60" stroke="#000" stroke-width="2" fill="none"/><use xlink:href="#r" transform="matrix(1,0,0,1,365,685) translate(16.099999999999994 28.6)"/><path d="M420 622v38.5" stroke="#000" stroke-width="2" fill="none"/><path d="M421 622.03h-2V621h2z"/><path d="M420 675.76l-4.64-14.26h9.28z" stroke="#000" stroke-width="2"/><path d="M254.03 710h66.47" stroke="#000" stroke-width="2" fill="none"/><path d="M254.06 711h-1.3l.54-2h.76z"/><path d="M335.76 710l-14.26 4.64v-9.28z" stroke="#000" stroke-width="2"/><path d="M270 800h300v80H270z" stroke="#000" stroke-width="2" fill="#ffeca9"/><path d="M300 800v80m240-80v80" stroke="#000" stroke-width="2" fill="none"/><use xlink:href="#s" transform="matrix(1,0,0,1,312.5,805) translate(92.55 17)"/><use xlink:href="#t" transform="matrix(1,0,0,1,312.5,805) translate(1.200000000000017 38.6)"/><use xlink:href="#u" transform="matrix(1,0,0,1,312.5,805) translate(93.025 60.2)"/><path d="M420 742v38.5" stroke="#000" stroke-width="2" fill="none"/><path d="M421 742.03h-2V741h2z"/><path d="M420 795.76l-4.64-14.26h9.28z" stroke="#000" stroke-width="2"/><path d="M280 940h280v80H280z" stroke="#000" stroke-width="2" fill="#ffeca9"/><path d="M308 940v80m224-80v80" stroke="#000" stroke-width="2" fill="none"/><g><use xlink:href="#v" transform="matrix(1,0,0,1,319.99999999999994,945) translate(0.09999999999999432 27.799999999999997)"/><use xlink:href="#w" transform="matrix(1,0,0,1,319.99999999999994,945) translate(53.05 27.799999999999997)"/><use xlink:href="#x" transform="matrix(1,0,0,1,319.99999999999994,945) translate(68.05 27.799999999999997)"/><use xlink:href="#y" transform="matrix(1,0,0,1,319.99999999999994,945) translate(88.05 27.799999999999997)"/><use xlink:href="#z" transform="matrix(1,0,0,1,319.99999999999994,945) translate(135.95 27.799999999999997)"/><use xlink:href="#A" transform="matrix(1,0,0,1,319.99999999999994,945) translate(17.599999999999994 49.4)"/><use xlink:href="#B" transform="matrix(1,0,0,1,319.99999999999994,945) translate(75.55 49.4)"/><use xlink:href="#C" transform="matrix(1,0,0,1,319.99999999999994,945) translate(101.5 49.4)"/><use xlink:href="#D" transform="matrix(1,0,0,1,319.99999999999994,945) translate(145.5 49.4)"/></g><path d="M420 882v38.5" stroke="#000" stroke-width="2" fill="none"/><path d="M421 882.03h-2V881h2z"/><path d="M420 935.76l-4.64-14.26h9.28z" stroke="#000" stroke-width="2"/><path d="M420 1022v38.5" stroke="#000" stroke-width="2" fill="none"/><path d="M421 1022.03h-2V1021h2z"/><path d="M420 1075.76l-4.64-14.26h9.28z" stroke="#000" stroke-width="2"/><path d="M620 960h160v40H620z" stroke="#000" stroke-width="2" fill="#c1e4f7"/><path d="M636 960v40m128-40v40" stroke="#000" stroke-width="2" fill="none"/><g><use xlink:href="#E" transform="matrix(1,0,0,1,645,965) translate(27.525 18.6)"/></g><path d="M562 980h38.5" stroke="#000" stroke-width="2" fill="none"/><path d="M562.03 981H561v-2h1.03z"/><path d="M615.76 980l-14.26 4.64v-9.28z" stroke="#000" stroke-width="2"/><defs><path d="M233-177c-1 41-23 64-60 70L243 0h-38l-65-103H63V0H30v-248c88 3 205-21 203 71zM63-129c60-2 137 13 137-47 0-61-80-42-137-45v92" id="F"/><path d="M100-194c63 0 86 42 84 106H49c0 40 14 67 53 68 26 1 43-12 49-29l28 8c-11 28-37 45-77 45C44 4 14-33 15-96c1-61 26-98 85-98zm52 81c6-60-76-77-97-28-3 7-6 17-6 28h103" id="G"/><path d="M141-36C126-15 110 5 73 4 37 3 15-17 15-53c-1-64 63-63 125-63 3-35-9-54-41-54-24 1-41 7-42 31l-33-3c5-37 33-52 76-52 45 0 72 20 72 64v82c-1 20 7 32 28 27v20c-31 9-61-2-59-35zM48-53c0 20 12 33 32 33 41-3 63-29 60-74-43 2-92-5-92 41" id="H"/><path d="M85-194c31 0 48 13 60 33l-1-100h32l1 261h-30c-2-10 0-23-3-31C134-8 116 4 85 4 32 4 16-35 15-94c0-66 23-100 70-100zm9 24c-40 0-46 34-46 75 0 40 6 74 45 74 42 0 51-32 51-76 0-42-9-74-50-73" id="I"/><g id="a"><use transform="matrix(0.05,0,0,0.05,0,0)" xlink:href="#F"/><use transform="matrix(0.05,0,0,0.05,12.950000000000001,0)" xlink:href="#G"/><use transform="matrix(0.05,0,0,0.05,22.950000000000003,0)" xlink:href="#H"/><use transform="matrix(0.05,0,0,0.05,32.95,0)" xlink:href="#I"/></g><path d="M27 0v-27h64v-190l-56 39v-29l58-41h29v221h61V0H27" id="J"/><use transform="matrix(0.05,0,0,0.05,0,0)" xlink:href="#J" id="b"/><path d="M101-234c-31-9-42 10-38 44h38v23H63V0H32v-167H5v-23h27c-7-52 17-82 69-68v24" id="K"/><path d="M135-143c-3-34-86-38-87 0 15 53 115 12 119 90S17 21 10-45l28-5c4 36 97 45 98 0-10-56-113-15-118-90-4-57 82-63 122-42 12 7 21 19 24 35" id="L"/><path d="M59-47c-2 24 18 29 38 22v24C64 9 27 4 27-40v-127H5v-23h24l9-43h21v43h35v23H59v120" id="M"/><path d="M145-31C134-9 116 4 85 4 32 4 16-35 15-94c0-59 17-99 70-100 32-1 48 14 60 33 0-11-1-24 2-32h30l-1 268h-32zM93-21c41 0 51-33 51-76s-8-73-50-73c-40 0-46 35-46 75s5 74 45 74" id="N"/><g id="c"><use transform="matrix(0.05,0,0,0.05,0,0)" xlink:href="#K"/><use transform="matrix(0.05,0,0,0.05,5,0)" xlink:href="#H"/><use transform="matrix(0.05,0,0,0.05,15,0)" xlink:href="#L"/><use transform="matrix(0.05,0,0,0.05,24,0)" xlink:href="#M"/><use transform="matrix(0.05,0,0,0.05,29,0)" xlink:href="#N"/></g><path d="M101-251c82-7 93 87 43 132L82-64C71-53 59-42 53-27h129V0H18c2-99 128-94 128-182 0-28-16-43-45-43s-46 15-49 41l-32-3c6-41 34-60 81-64" id="O"/><use transform="matrix(0.05,0,0,0.05,0,0)" xlink:href="#O" id="d"/><path d="M114-163C36-179 61-72 57 0H25l-1-190h30c1 12-1 29 2 39 6-27 23-49 58-41v29" id="P"/><path d="M117-194c89-4 53 116 60 194h-32v-121c0-31-8-49-39-48C34-167 62-67 57 0H25l-1-190h30c1 10-1 24 2 32 11-22 29-35 61-36" id="Q"/><path d="M96-169c-40 0-48 33-48 73s9 75 48 75c24 0 41-14 43-38l32 2c-6 37-31 61-74 61-59 0-76-41-82-99-10-93 101-131 147-64 4 7 5 14 7 22l-32 3c-4-21-16-35-41-35" id="R"/><g id="e"><use transform="matrix(0.05,0,0,0.05,0,0)" xlink:href="#F"/><use transform="matrix(0.05,0,0,0.05,12.950000000000001,0)" xlink:href="#G"/><use transform="matrix(0.05,0,0,0.05,22.950000000000003,0)" xlink:href="#K"/><use transform="matrix(0.05,0,0,0.05,27.950000000000003,0)" xlink:href="#G"/><use transform="matrix(0.05,0,0,0.05,37.95,0)" xlink:href="#P"/><use transform="matrix(0.05,0,0,0.05,43.900000000000006,0)" xlink:href="#G"/><use transform="matrix(0.05,0,0,0.05,53.900000000000006,0)" xlink:href="#Q"/><use transform="matrix(0.05,0,0,0.05,63.900000000000006,0)" xlink:href="#R"/><use transform="matrix(0.05,0,0,0.05,72.9,0)" xlink:href="#G"/></g><path d="M63-220v92h138v28H63V0H30v-248h175v28H63" id="S"/><path d="M205 0l-28-72H64L36 0H1l101-248h38L239 0h-34zm-38-99l-47-123c-12 45-31 82-46 123h93" id="T"/><path d="M185-189c-5-48-123-54-124 2 14 75 158 14 163 119 3 78-121 87-175 55-17-10-28-26-33-46l33-7c5 56 141 63 141-1 0-78-155-14-162-118-5-82 145-84 179-34 5 7 8 16 11 25" id="U"/><path d="M127-220V0H93v-220H8v-28h204v28h-85" id="V"/><g id="f"><use transform="matrix(0.05,0,0,0.05,0,0)" xlink:href="#S"/><use transform="matrix(0.05,0,0,0.05,9.950000000000001,0)" xlink:href="#T"/><use transform="matrix(0.05,0,0,0.05,21.950000000000003,0)" xlink:href="#U"/><use transform="matrix(0.05,0,0,0.05,33.95,0)" xlink:href="#V"/><use transform="matrix(0.05,0,0,0.05,43.550000000000004,0)" xlink:href="#T"/></g><path d="M140-251c81 0 123 46 123 126C263-46 219 4 140 4 59 4 17-45 17-125s42-126 123-126zm0 227c63 0 89-41 89-101s-29-99-89-99c-61 0-89 39-89 99S79-25 140-24" id="W"/><path d="M24 0v-261h32V0H24" id="X"/><path d="M24-231v-30h32v30H24zM24 0v-190h32V0H24" id="Y"/><path d="M177-190C167-65 218 103 67 71c-23-6-38-20-44-43l32-5c15 47 100 32 89-28v-30C133-14 115 1 83 1 29 1 15-40 15-95c0-56 16-97 71-98 29-1 48 16 59 35 1-10 0-23 2-32h30zM94-22c36 0 50-32 50-73 0-42-14-75-50-75-39 0-46 34-46 75s6 73 46 73" id="Z"/><path d="M100-194c62-1 85 37 85 99 1 63-27 99-86 99S16-35 15-95c0-66 28-99 85-99zM99-20c44 1 53-31 53-75 0-43-8-75-51-75s-53 32-53 75 10 74 51 75" id="aa"/><g id="g"><use transform="matrix(0.05,0,0,0.05,0,0)" xlink:href="#W"/><use transform="matrix(0.05,0,0,0.05,14,0)" xlink:href="#X"/><use transform="matrix(0.05,0,0,0.05,17.95,0)" xlink:href="#Y"/><use transform="matrix(0.05,0,0,0.05,21.9,0)" xlink:href="#Z"/><use transform="matrix(0.05,0,0,0.05,31.899999999999995,0)" xlink:href="#aa"/></g><path d="M143 0L79-87 56-68V0H24v-261h32v163l83-92h37l-77 82L181 0h-38" id="ab"/><g id="h"><use transform="matrix(0.05,0,0,0.05,0,0)" xlink:href="#X"/><use transform="matrix(0.05,0,0,0.05,3.95,0)" xlink:href="#Y"/><use transform="matrix(0.05,0,0,0.05,7.9,0)" xlink:href="#Q"/><use transform="matrix(0.05,0,0,0.05,17.9,0)" xlink:href="#ab"/><use transform="matrix(0.05,0,0,0.05,26.899999999999995,0)" xlink:href="#G"/><use transform="matrix(0.05,0,0,0.05,36.9,0)" xlink:href="#P"/></g><path d="M210-169c-67 3-38 105-44 169h-31v-121c0-29-5-50-35-48C34-165 62-65 56 0H25l-1-190h30c1 10-1 24 2 32 10-44 99-50 107 0 11-21 27-35 58-36 85-2 47 119 55 194h-31v-121c0-29-5-49-35-48" id="ac"/><g id="i"><use transform="matrix(0.05,0,0,0.05,0,0)" xlink:href="#Y"/><use transform="matrix(0.05,0,0,0.05,3.95,0)" xlink:href="#Q"/><use transform="matrix(0.05,0,0,0.05,13.949999999999998,0)" xlink:href="#K"/><use transform="matrix(0.05,0,0,0.05,18.95,0)" xlink:href="#aa"/><use transform="matrix(0.05,0,0,0.05,28.950000000000003,0)" xlink:href="#P"/><use transform="matrix(0.05,0,0,0.05,34.9,0)" xlink:href="#ac"/><use transform="matrix(0.05,0,0,0.05,49.85,0)" xlink:href="#H"/><use transform="matrix(0.05,0,0,0.05,59.85,0)" xlink:href="#M"/><use transform="matrix(0.05,0,0,0.05,64.85,0)" xlink:href="#Y"/><use transform="matrix(0.05,0,0,0.05,68.8,0)" xlink:href="#aa"/><use transform="matrix(0.05,0,0,0.05,78.8,0)" xlink:href="#Q"/></g><path d="M16-82v-28h88v28H16" id="ad"/><path d="M160-131c35 5 61 23 61 61C221 17 115-2 30 0v-248c76 3 177-17 177 60 0 33-19 50-47 57zm-97-11c50-1 110 9 110-42 0-47-63-36-110-37v79zm0 115c55-2 124 14 124-45 0-56-70-42-124-44v89" id="ae"/><g id="j"><use transform="matrix(0.05,0,0,0.05,0,0)" xlink:href="#W"/><use transform="matrix(0.05,0,0,0.05,14,0)" xlink:href="#X"/><use transform="matrix(0.05,0,0,0.05,17.95,0)" xlink:href="#Y"/><use transform="matrix(0.05,0,0,0.05,21.9,0)" xlink:href="#Z"/><use transform="matrix(0.05,0,0,0.05,31.899999999999995,0)" xlink:href="#aa"/><use transform="matrix(0.05,0,0,0.05,41.9,0)" xlink:href="#ad"/><use transform="matrix(0.05,0,0,0.05,47.85,0)" xlink:href="#ae"/><use transform="matrix(0.05,0,0,0.05,59.85,0)" xlink:href="#H"/><use transform="matrix(0.05,0,0,0.05,69.85,0)" xlink:href="#P"/><use transform="matrix(0.05,0,0,0.05,75.8,0)" xlink:href="#R"/><use transform="matrix(0.05,0,0,0.05,84.8,0)" xlink:href="#aa"/><use transform="matrix(0.05,0,0,0.05,94.8,0)" xlink:href="#I"/><use transform="matrix(0.05,0,0,0.05,104.80000000000001,0)" xlink:href="#G"/></g><path d="M30-248c118-7 216 8 213 122C240-48 200 0 122 0H30v-248zM63-27c89 8 146-16 146-99s-60-101-146-95v194" id="af"/><path d="M179-190L93 31C79 59 56 82 12 73V49c39 6 53-20 64-50L1-190h34L92-34l54-156h33" id="ag"/><g id="k"><use transform="matrix(0.05,0,0,0.05,0,0)" xlink:href="#af"/><use transform="matrix(0.05,0,0,0.05,12.950000000000001,0)" xlink:href="#Y"/><use transform="matrix(0.05,0,0,0.05,16.900000000000002,0)" xlink:href="#R"/><use transform="matrix(0.05,0,0,0.05,25.900000000000002,0)" xlink:href="#M"/><use transform="matrix(0.05,0,0,0.05,30.900000000000002,0)" xlink:href="#Y"/><use transform="matrix(0.05,0,0,0.05,34.85,0)" xlink:href="#aa"/><use transform="matrix(0.05,0,0,0.05,44.85,0)" xlink:href="#Q"/><use transform="matrix(0.05,0,0,0.05,54.85,0)" xlink:href="#H"/><use transform="matrix(0.05,0,0,0.05,64.85,0)" xlink:href="#P"/><use transform="matrix(0.05,0,0,0.05,70.8,0)" xlink:href="#ag"/></g><path d="M30 0v-248h33v221h125V0H30" id="ah"/><path d="M197 0v-115H63V0H30v-248h33v105h134v-105h34V0h-34" id="ai"/><g id="l"><use transform="matrix(0.05,0,0,0.05,0,0)" xlink:href="#S"/><use transform="matrix(0.05,0,0,0.05,10.950000000000001,0)" xlink:href="#ah"/><use transform="matrix(0.05,0,0,0.05,20.950000000000003,0)" xlink:href="#T"/><use transform="matrix(0.05,0,0,0.05,32.95,0)" xlink:href="#U"/><use transform="matrix(0.05,0,0,0.05,44.95,0)" xlink:href="#ai"/><use transform="matrix(0.05,0,0,0.05,57.900000000000006,0)" xlink:href="#O"/></g><path d="M30-248c87 1 191-15 191 75 0 78-77 80-158 76V0H30v-248zm33 125c57 0 124 11 124-50 0-59-68-47-124-48v98" id="aj"/><path d="M84 4C-5 8 30-112 23-190h32v120c0 31 7 50 39 49 72-2 45-101 50-169h31l1 190h-30c-1-10 1-25-2-33-11 22-28 36-60 37" id="ak"/><g id="m"><use transform="matrix(0.05,0,0,0.05,0,0)" xlink:href="#aj"/><use transform="matrix(0.05,0,0,0.05,12,0)" xlink:href="#ak"/><use transform="matrix(0.05,0,0,0.05,22,0)" xlink:href="#X"/><use transform="matrix(0.05,0,0,0.05,25.950000000000003,0)" xlink:href="#X"/></g><path d="M0 4l72-265h28L28 4H0" id="al"/><g id="n"><use transform="matrix(0.05,0,0,0.05,0,0)" xlink:href="#ae"/><use transform="matrix(0.05,0,0,0.05,12,0)" xlink:href="#H"/><use transform="matrix(0.05,0,0,0.05,22,0)" xlink:href="#P"/><use transform="matrix(0.05,0,0,0.05,27.950000000000003,0)" xlink:href="#R"/><use transform="matrix(0.05,0,0,0.05,36.95,0)" xlink:href="#aa"/><use transform="matrix(0.05,0,0,0.05,46.95,0)" xlink:href="#I"/><use transform="matrix(0.05,0,0,0.05,56.95,0)" xlink:href="#G"/><use transform="matrix(0.05,0,0,0.05,66.95,0)" xlink:href="#al"/><use transform="matrix(0.05,0,0,0.05,71.95,0)" xlink:href="#W"/><use transform="matrix(0.05,0,0,0.05,85.95,0)" xlink:href="#X"/><use transform="matrix(0.05,0,0,0.05,89.9,0)" xlink:href="#Y"/><use transform="matrix(0.05,0,0,0.05,93.85000000000001,0)" xlink:href="#Z"/><use transform="matrix(0.05,0,0,0.05,103.85000000000001,0)" xlink:href="#aa"/></g><g id="o"><use transform="matrix(0.05,0,0,0.05,0,0)" xlink:href="#aj"/><use transform="matrix(0.05,0,0,0.05,12,0)" xlink:href="#H"/><use transform="matrix(0.05,0,0,0.05,22,0)" xlink:href="#Y"/><use transform="matrix(0.05,0,0,0.05,25.950000000000003,0)" xlink:href="#P"/><use transform="matrix(0.05,0,0,0.05,31.899999999999995,0)" xlink:href="#L"/></g><g id="p"><use transform="matrix(0.05,0,0,0.05,0,0)" xlink:href="#F"/><use transform="matrix(0.05,0,0,0.05,12.950000000000001,0)" xlink:href="#G"/><use transform="matrix(0.05,0,0,0.05,22.950000000000003,0)" xlink:href="#H"/><use transform="matrix(0.05,0,0,0.05,32.95,0)" xlink:href="#P"/><use transform="matrix(0.05,0,0,0.05,38.900000000000006,0)" xlink:href="#P"/><use transform="matrix(0.05,0,0,0.05,44.85000000000001,0)" xlink:href="#H"/><use transform="matrix(0.05,0,0,0.05,54.85,0)" xlink:href="#Q"/><use transform="matrix(0.05,0,0,0.05,64.85000000000001,0)" xlink:href="#Z"/><use transform="matrix(0.05,0,0,0.05,74.85000000000001,0)" xlink:href="#G"/></g><g id="q"><use transform="matrix(0.05,0,0,0.05,0,0)" xlink:href="#M"/><use transform="matrix(0.05,0,0,0.05,5,0)" xlink:href="#aa"/></g><path d="M240 0l2-218c-23 76-54 145-80 218h-23L58-218 59 0H30v-248h44l77 211c21-75 51-140 76-211h43V0h-30" id="am"/><path d="M115-194c55 1 70 41 70 98S169 2 115 4C84 4 66-9 55-30l1 105H24l-1-265h31l2 30c10-21 28-34 59-34zm-8 174c40 0 45-34 45-75s-6-73-45-74c-42 0-51 32-51 76 0 43 10 73 51 73" id="an"/><g id="r"><use transform="matrix(0.05,0,0,0.05,0,0)" xlink:href="#am"/><use transform="matrix(0.05,0,0,0.05,14.950000000000001,0)" xlink:href="#Y"/><use transform="matrix(0.05,0,0,0.05,18.900000000000002,0)" xlink:href="#Q"/><use transform="matrix(0.05,0,0,0.05,28.900000000000002,0)" xlink:href="#Y"/><use transform="matrix(0.05,0,0,0.05,32.85,0)" xlink:href="#am"/><use transform="matrix(0.05,0,0,0.05,47.800000000000004,0)" xlink:href="#H"/><use transform="matrix(0.05,0,0,0.05,57.800000000000004,0)" xlink:href="#an"/><use transform="matrix(0.05,0,0,0.05,67.80000000000001,0)" xlink:href="#O"/></g><g id="s"><use transform="matrix(0.05,0,0,0.05,0,0)" xlink:href="#aj"/><use transform="matrix(0.05,0,0,0.05,12,0)" xlink:href="#ak"/><use transform="matrix(0.05,0,0,0.05,22,0)" xlink:href="#X"/><use transform="matrix(0.05,0,0,0.05,25.950000000000003,0)" xlink:href="#X"/></g><path d="M115-194c53 0 69 39 70 98 0 66-23 100-70 100C84 3 66-7 56-30L54 0H23l1-261h32v101c10-23 28-34 59-34zm-8 174c40 0 45-34 45-75 0-40-5-75-45-74-42 0-51 32-51 76 0 43 10 73 51 73" id="ao"/><path d="M212-179c-10-28-35-45-73-45-59 0-87 40-87 99 0 60 29 101 89 101 43 0 62-24 78-52l27 14C228-24 195 4 139 4 59 4 22-46 18-125c-6-104 99-153 187-111 19 9 31 26 39 46" id="ap"/><path d="M33 0v-248h34V0H33" id="aq"/><path d="M143 4C61 4 22-44 18-125c-5-107 100-154 193-111 17 8 29 25 37 43l-32 9c-13-25-37-40-76-40-61 0-88 39-88 99 0 61 29 100 91 101 35 0 62-11 79-27v-45h-74v-28h105v86C228-13 192 4 143 4" id="ar"/><g id="t"><use transform="matrix(0.05,0,0,0.05,0,0)" xlink:href="#aa"/><use transform="matrix(0.05,0,0,0.05,10,0)" xlink:href="#X"/><use transform="matrix(0.05,0,0,0.05,13.949999999999998,0)" xlink:href="#Y"/><use transform="matrix(0.05,0,0,0.05,17.9,0)" xlink:href="#Z"/><use transform="matrix(0.05,0,0,0.05,27.899999999999995,0)" xlink:href="#aa"/><use transform="matrix(0.05,0,0,0.05,37.9,0)" xlink:href="#al"/><use transform="matrix(0.05,0,0,0.05,42.9,0)" xlink:href="#ao"/><use transform="matrix(0.05,0,0,0.05,52.900000000000006,0)" xlink:href="#H"/><use transform="matrix(0.05,0,0,0.05,62.900000000000006,0)" xlink:href="#P"/><use transform="matrix(0.05,0,0,0.05,68.85,0)" xlink:href="#R"/><use transform="matrix(0.05,0,0,0.05,77.85,0)" xlink:href="#aa"/><use transform="matrix(0.05,0,0,0.05,87.85,0)" xlink:href="#I"/><use transform="matrix(0.05,0,0,0.05,97.85,0)" xlink:href="#G"/><use transform="matrix(0.05,0,0,0.05,107.84999999999998,0)" xlink:href="#al"/><use transform="matrix(0.05,0,0,0.05,112.84999999999998,0)" xlink:href="#ap"/><use transform="matrix(0.05,0,0,0.05,125.80000000000001,0)" xlink:href="#aq"/><use transform="matrix(0.05,0,0,0.05,130.8,0)" xlink:href="#ar"/><use transform="matrix(0.05,0,0,0.05,144.8,0)" xlink:href="#T"/><use transform="matrix(0.05,0,0,0.05,156.8,0)" xlink:href="#F"/><use transform="matrix(0.05,0,0,0.05,169.75,0)" xlink:href="#al"/><use transform="matrix(0.05,0,0,0.05,174.75,0)" xlink:href="#G"/><use transform="matrix(0.05,0,0,0.05,184.75,0)" xlink:href="#P"/><use transform="matrix(0.05,0,0,0.05,190.7,0)" xlink:href="#P"/><use transform="matrix(0.05,0,0,0.05,196.64999999999998,0)" xlink:href="#aa"/><use transform="matrix(0.05,0,0,0.05,206.64999999999998,0)" xlink:href="#P"/></g><g id="u"><use transform="matrix(0.05,0,0,0.05,0,0)" xlink:href="#Y"/><use transform="matrix(0.05,0,0,0.05,3.95,0)" xlink:href="#Q"/><use transform="matrix(0.05,0,0,0.05,13.949999999999998,0)" xlink:href="#K"/><use transform="matrix(0.05,0,0,0.05,18.95,0)" xlink:href="#aa"/></g><g id="v"><use transform="matrix(0.05,0,0,0.05,0,0)" xlink:href="#ap"/><use transform="matrix(0.05,0,0,0.05,12.950000000000001,0)" xlink:href="#aa"/><use transform="matrix(0.05,0,0,0.05,22.950000000000003,0)" xlink:href="#ak"/><use transform="matrix(0.05,0,0,0.05,32.95,0)" xlink:href="#Q"/><use transform="matrix(0.05,0,0,0.05,42.95,0)" xlink:href="#M"/></g><path d="M158-156l-14 65h45v19h-49L124 0h-19l15-72H56L41 0H22l15-72H2v-19h39l14-65H11v-19h48l15-71h20l-16 71h64l16-71h19l-16 71h37v19h-40zm-83 0L61-91h63l14-65H75" id="as"/><use transform="matrix(0.05,0,0,0.05,0,0)" xlink:href="#as" id="w"/><g id="x"><use transform="matrix(0.05,0,0,0.05,0,0)" xlink:href="#aa"/><use transform="matrix(0.05,0,0,0.05,10,0)" xlink:href="#K"/></g><g id="y"><use transform="matrix(0.05,0,0,0.05,0,0)" xlink:href="#M"/><use transform="matrix(0.05,0,0,0.05,5,0)" xlink:href="#Y"/><use transform="matrix(0.05,0,0,0.05,8.95,0)" xlink:href="#ac"/><use transform="matrix(0.05,0,0,0.05,23.9,0)" xlink:href="#G"/><use transform="matrix(0.05,0,0,0.05,33.9,0)" xlink:href="#L"/></g><g id="z"><use transform="matrix(0.05,0,0,0.05,0,0)" xlink:href="#ao"/><use transform="matrix(0.05,0,0,0.05,10,0)" xlink:href="#H"/><use transform="matrix(0.05,0,0,0.05,20,0)" xlink:href="#P"/><use transform="matrix(0.05,0,0,0.05,25.950000000000003,0)" xlink:href="#R"/><use transform="matrix(0.05,0,0,0.05,34.95,0)" xlink:href="#aa"/><use transform="matrix(0.05,0,0,0.05,44.95,0)" xlink:href="#I"/><use transform="matrix(0.05,0,0,0.05,54.95,0)" xlink:href="#G"/></g><g id="A"><use transform="matrix(0.05,0,0,0.05,0,0)" xlink:href="#aa"/><use transform="matrix(0.05,0,0,0.05,10,0)" xlink:href="#R"/><use transform="matrix(0.05,0,0,0.05,19,0)" xlink:href="#R"/><use transform="matrix(0.05,0,0,0.05,28,0)" xlink:href="#ak"/><use transform="matrix(0.05,0,0,0.05,38,0)" xlink:href="#P"/><use transform="matrix(0.05,0,0,0.05,43.95,0)" xlink:href="#L"/></g><g id="B"><use transform="matrix(0.05,0,0,0.05,0,0)" xlink:href="#K"/><use transform="matrix(0.05,0,0,0.05,5,0)" xlink:href="#aa"/><use transform="matrix(0.05,0,0,0.05,15,0)" xlink:href="#P"/></g><path d="M106-169C34-169 62-67 57 0H25v-261h32l-1 103c12-21 28-36 61-36 89 0 53 116 60 194h-32v-121c2-32-8-49-39-48" id="at"/><g id="C"><use transform="matrix(0.05,0,0,0.05,0,0)" xlink:href="#G"/><use transform="matrix(0.05,0,0,0.05,10,0)" xlink:href="#H"/><use transform="matrix(0.05,0,0,0.05,20,0)" xlink:href="#R"/><use transform="matrix(0.05,0,0,0.05,29,0)" xlink:href="#at"/></g><g id="D"><use transform="matrix(0.05,0,0,0.05,0,0)" xlink:href="#aa"/><use transform="matrix(0.05,0,0,0.05,10,0)" xlink:href="#X"/><use transform="matrix(0.05,0,0,0.05,13.949999999999998,0)" xlink:href="#Y"/><use transform="matrix(0.05,0,0,0.05,17.9,0)" xlink:href="#Z"/><use transform="matrix(0.05,0,0,0.05,27.899999999999995,0)" xlink:href="#aa"/></g><g id="E"><use transform="matrix(0.05,0,0,0.05,0,0)" xlink:href="#an"/><use transform="matrix(0.05,0,0,0.05,10,0)" xlink:href="#P"/><use transform="matrix(0.05,0,0,0.05,15.949999999999998,0)" xlink:href="#G"/><use transform="matrix(0.05,0,0,0.05,25.950000000000003,0)" xlink:href="#L"/><use transform="matrix(0.05,0,0,0.05,34.95,0)" xlink:href="#G"/><use transform="matrix(0.05,0,0,0.05,44.95,0)" xlink:href="#N"/></g></defs></g></svg>