<svg xmlns="http://www.w3.org/2000/svg" xmlns:xlink="http://www.w3.org/1999/xlink" xmlns:lucid="lucid" width="605" height="760"><g transform="translate(-20 -40)" lucid:page-tab-id="0_0"><path d="M0 0h1323.2v1870.4H0z" fill="#fff"/><path d="M316 60h164l-16 60H300z" stroke="#000" stroke-width="2" fill="#c7e8ac"/><path d="M336 80h164l-16 60H320z" stroke="#000" stroke-width="2" fill="#c7e8ac"/><path d="M356 100h164l-16 60H340z" stroke="#000" stroke-width="2" fill="#c7e8ac"/><use xlink:href="#a" transform="matrix(1,0,0,1,345,105) translate(21.07999999999999 30.025)"/><use xlink:href="#b" transform="matrix(1,0,0,1,345,105) translate(100.93 30.025)"/><path d="M56 100h224l-16 60H40z" stroke="#000" stroke-width="2" fill="#99d5ca"/><use xlink:href="#c" transform="matrix(1,0,0,1,45,105) translate(15.680000000000001 30.025)"/><use xlink:href="#d" transform="matrix(1,0,0,1,45,105) translate(62.58 30.025)"/><use xlink:href="#e" transform="matrix(1,0,0,1,45,105) translate(134.53 30.025)"/><path d="M230 229h320v60H230z" stroke="#000" stroke-width="2" fill="#ffeca9"/><path d="M262 229v60m256-60v60" stroke="#000" stroke-width="2" fill="none"/><use xlink:href="#f" transform="matrix(1,0,0,1,275,234) translate(3.125 28.6)"/><use xlink:href="#g" transform="matrix(1,0,0,1,275,234) translate(38.025 28.6)"/><use xlink:href="#h" transform="matrix(1,0,0,1,275,234) translate(60.925 28.6)"/><use xlink:href="#i" transform="matrix(1,0,0,1,275,234) translate(153.925 28.6)"/><path d="M215 380h350v60H215z" stroke="#000" stroke-width="2" fill="#ffeca9"/><path d="M250 380v60m280-60v60" stroke="#000" stroke-width="2" fill="none"/><use xlink:href="#j" transform="matrix(1,0,0,1,263.75,385) translate(1.6499999999999915 28.6)"/><use xlink:href="#k" transform="matrix(1,0,0,1,263.75,385) translate(84.6 28.6)"/><use xlink:href="#l" transform="matrix(1,0,0,1,263.75,385) translate(163.55 28.6)"/><use xlink:href="#m" transform="matrix(1,0,0,1,263.75,385) translate(200.45 28.6)"/><path d="M250 249h320v60H250z" stroke="#000" stroke-width="2" fill="#ffeca9"/><path d="M282 249v60m256-60v60" stroke="#000" stroke-width="2" fill="none"/><use xlink:href="#f" transform="matrix(1,0,0,1,295,254) translate(3.125 28.6)"/><use xlink:href="#g" transform="matrix(1,0,0,1,295,254) translate(38.025 28.6)"/><use xlink:href="#h" transform="matrix(1,0,0,1,295,254) translate(60.925 28.6)"/><use xlink:href="#i" transform="matrix(1,0,0,1,295,254) translate(153.925 28.6)"/><path d="M270 269h320v60H270z" stroke="#000" stroke-width="2" fill="#ffeca9"/><path d="M302 269v60m256-60v60" stroke="#000" stroke-width="2" fill="none"/><use xlink:href="#f" transform="matrix(1,0,0,1,315,274) translate(3.125 28.6)"/><use xlink:href="#g" transform="matrix(1,0,0,1,315,274) translate(38.025 28.6)"/><use xlink:href="#h" transform="matrix(1,0,0,1,315,274) translate(60.925 28.6)"/><use xlink:href="#i" transform="matrix(1,0,0,1,315,274) translate(153.925 28.6)"/><path d="M160 162v52.5h270v35" stroke="#000" stroke-width="2" fill="none"/><path d="M161 162.03h-2V161h2z"/><path d="M430 264.76l-4.64-14.26h9.28z" stroke="#000" stroke-width="2"/><path d="M430 162v87.5" stroke="#000" stroke-width="2" fill="none"/><path d="M431 162.03h-2V161h2z"/><path d="M430 264.76l-4.64-14.26h9.28z" stroke="#000" stroke-width="2"/><path d="M235 400h350v60H235z" stroke="#000" stroke-width="2" fill="#ffeca9"/><path d="M270 400v60m280-60v60" stroke="#000" stroke-width="2" fill="none"/><use xlink:href="#j" transform="matrix(1,0,0,1,283.75,405) translate(1.6499999999999915 28.6)"/><use xlink:href="#k" transform="matrix(1,0,0,1,283.75,405) translate(84.6 28.6)"/><use xlink:href="#l" transform="matrix(1,0,0,1,283.75,405) translate(163.55 28.6)"/><use xlink:href="#m" transform="matrix(1,0,0,1,283.75,405) translate(200.45 28.6)"/><path d="M255 420h350v60H255z" stroke="#000" stroke-width="2" fill="#ffeca9"/><path d="M290 420v60m280-60v60" stroke="#000" stroke-width="2" fill="none"/><use xlink:href="#j" transform="matrix(1,0,0,1,303.75,425) translate(1.6499999999999915 28.6)"/><use xlink:href="#k" transform="matrix(1,0,0,1,303.75,425) translate(84.6 28.6)"/><use xlink:href="#l" transform="matrix(1,0,0,1,303.75,425) translate(163.55 28.6)"/><use xlink:href="#m" transform="matrix(1,0,0,1,303.75,425) translate(200.45 28.6)"/><path d="M430 331v69.5" stroke="#000" stroke-width="2" fill="none"/><path d="M431 331.03h-2V330h2z"/><path d="M430 415.76l-4.64-14.26h9.28z" stroke="#000" stroke-width="2"/><path d="M160 162v288h75.5" stroke="#000" stroke-width="2" fill="none"/><path d="M161 162.03h-2V161h2z"/><path d="M250.76 450l-14.26 4.64v-9.28z" stroke="#000" stroke-width="2"/><path d="M275 560h310v60H275z" stroke="#000" stroke-width="2" fill="#ffeca9"/><path d="M306 560v60m248-60v60" stroke="#000" stroke-width="2" fill="none"/><g><use xlink:href="#n" transform="matrix(1,0,0,1,318.75,565) translate(28.049999999999997 28.6)"/><use xlink:href="#o" transform="matrix(1,0,0,1,318.75,565) translate(77 28.6)"/><use xlink:href="#p" transform="matrix(1,0,0,1,318.75,565) translate(107 28.6)"/><use xlink:href="#q" transform="matrix(1,0,0,1,318.75,565) translate(156 28.6)"/></g><path d="M430 482v58.5" stroke="#000" stroke-width="2" fill="none"/><path d="M431 482.03h-2V481h2z"/><path d="M430 555.76l-4.64-14.26h9.28z" stroke="#000" stroke-width="2"/><path d="M478 700c17.67 0 32 17.9 32 40s-14.33 40-32 40h-96c-17.67 0-32-17.9-32-40s14.33-40 32-40z" stroke="#000" stroke-width="2" fill="#ffbbb1"/><g><use xlink:href="#r" transform="matrix(1,0,0,1,355,705) translate(27.074999999999996 38.4625)"/><use xlink:href="#s" transform="matrix(1,0,0,1,355,705) translate(80.025 38.4625)"/></g><path d="M430 622v58.5" stroke="#000" stroke-width="2" fill="none"/><path d="M431 622.03h-2V621h2z"/><path d="M430 695.76l-4.64-14.26h9.28z" stroke="#000" stroke-width="2"/><defs><path d="M233-177c-1 41-23 64-60 70L243 0h-38l-65-103H63V0H30v-248c88 3 205-21 203 71zM63-129c60-2 137 13 137-47 0-61-80-42-137-45v92" id="t"/><path d="M100-194c63 0 86 42 84 106H49c0 40 14 67 53 68 26 1 43-12 49-29l28 8c-11 28-37 45-77 45C44 4 14-33 15-96c1-61 26-98 85-98zm52 81c6-60-76-77-97-28-3 7-6 17-6 28h103" id="u"/><path d="M115-194c55 1 70 41 70 98S169 2 115 4C84 4 66-9 55-30l1 105H24l-1-265h31l2 30c10-21 28-34 59-34zm-8 174c40 0 45-34 45-75s-6-73-45-74c-42 0-51 32-51 76 0 43 10 73 51 73" id="v"/><path d="M24 0v-261h32V0H24" id="w"/><path d="M24-231v-30h32v30H24zM24 0v-190h32V0H24" id="x"/><path d="M96-169c-40 0-48 33-48 73s9 75 48 75c24 0 41-14 43-38l32 2c-6 37-31 61-74 61-59 0-76-41-82-99-10-93 101-131 147-64 4 7 5 14 7 22l-32 3c-4-21-16-35-41-35" id="y"/><path d="M141-36C126-15 110 5 73 4 37 3 15-17 15-53c-1-64 63-63 125-63 3-35-9-54-41-54-24 1-41 7-42 31l-33-3c5-37 33-52 76-52 45 0 72 20 72 64v82c-1 20 7 32 28 27v20c-31 9-61-2-59-35zM48-53c0 20 12 33 32 33 41-3 63-29 60-74-43 2-92-5-92 41" id="z"/><path d="M59-47c-2 24 18 29 38 22v24C64 9 27 4 27-40v-127H5v-23h24l9-43h21v43h35v23H59v120" id="A"/><g id="a"><use transform="matrix(0.05,0,0,0.05,0,0)" xlink:href="#t"/><use transform="matrix(0.05,0,0,0.05,12.950000000000001,0)" xlink:href="#u"/><use transform="matrix(0.05,0,0,0.05,22.950000000000003,0)" xlink:href="#v"/><use transform="matrix(0.05,0,0,0.05,32.95,0)" xlink:href="#w"/><use transform="matrix(0.05,0,0,0.05,36.900000000000006,0)" xlink:href="#x"/><use transform="matrix(0.05,0,0,0.05,40.85000000000001,0)" xlink:href="#y"/><use transform="matrix(0.05,0,0,0.05,49.85000000000001,0)" xlink:href="#z"/><use transform="matrix(0.05,0,0,0.05,59.85,0)" xlink:href="#A"/><use transform="matrix(0.05,0,0,0.05,64.85000000000001,0)" xlink:href="#u"/></g><path d="M101-234c-31-9-42 10-38 44h38v23H63V0H32v-167H5v-23h27c-7-52 17-82 69-68v24" id="B"/><path d="M135-143c-3-34-86-38-87 0 15 53 115 12 119 90S17 21 10-45l28-5c4 36 97 45 98 0-10-56-113-15-118-90-4-57 82-63 122-42 12 7 21 19 24 35" id="C"/><path d="M145-31C134-9 116 4 85 4 32 4 16-35 15-94c0-59 17-99 70-100 32-1 48 14 60 33 0-11-1-24 2-32h30l-1 268h-32zM93-21c41 0 51-33 51-76s-8-73-50-73c-40 0-46 35-46 75s5 74 45 74" id="D"/><g id="b"><use transform="matrix(0.05,0,0,0.05,0,0)" xlink:href="#B"/><use transform="matrix(0.05,0,0,0.05,5,0)" xlink:href="#z"/><use transform="matrix(0.05,0,0,0.05,15,0)" xlink:href="#C"/><use transform="matrix(0.05,0,0,0.05,24,0)" xlink:href="#A"/><use transform="matrix(0.05,0,0,0.05,29,0)" xlink:href="#D"/><use transform="matrix(0.05,0,0,0.05,39,0)" xlink:href="#C"/></g><path d="M140-251c81 0 123 46 123 126C263-46 219 4 140 4 59 4 17-45 17-125s42-126 123-126zm0 227c63 0 89-41 89-101s-29-99-89-99c-61 0-89 39-89 99S79-25 140-24" id="E"/><path d="M177-190C167-65 218 103 67 71c-23-6-38-20-44-43l32-5c15 47 100 32 89-28v-30C133-14 115 1 83 1 29 1 15-40 15-95c0-56 16-97 71-98 29-1 48 16 59 35 1-10 0-23 2-32h30zM94-22c36 0 50-32 50-73 0-42-14-75-50-75-39 0-46 34-46 75s6 73 46 73" id="F"/><path d="M100-194c62-1 85 37 85 99 1 63-27 99-86 99S16-35 15-95c0-66 28-99 85-99zM99-20c44 1 53-31 53-75 0-43-8-75-51-75s-53 32-53 75 10 74 51 75" id="G"/><g id="c"><use transform="matrix(0.05,0,0,0.05,0,0)" xlink:href="#E"/><use transform="matrix(0.05,0,0,0.05,14,0)" xlink:href="#w"/><use transform="matrix(0.05,0,0,0.05,17.95,0)" xlink:href="#x"/><use transform="matrix(0.05,0,0,0.05,21.9,0)" xlink:href="#F"/><use transform="matrix(0.05,0,0,0.05,31.899999999999995,0)" xlink:href="#G"/></g><path d="M160-131c35 5 61 23 61 61C221 17 115-2 30 0v-248c76 3 177-17 177 60 0 33-19 50-47 57zm-97-11c50-1 110 9 110-42 0-47-63-36-110-37v79zm0 115c55-2 124 14 124-45 0-56-70-42-124-44v89" id="H"/><path d="M114-163C36-179 61-72 57 0H25l-1-190h30c1 12-1 29 2 39 6-27 23-49 58-41v29" id="I"/><path d="M85-194c31 0 48 13 60 33l-1-100h32l1 261h-30c-2-10 0-23-3-31C134-8 116 4 85 4 32 4 16-35 15-94c0-66 23-100 70-100zm9 24c-40 0-46 34-46 75 0 40 6 74 45 74 42 0 51-32 51-76 0-42-9-74-50-73" id="J"/><g id="d"><use transform="matrix(0.05,0,0,0.05,0,0)" xlink:href="#H"/><use transform="matrix(0.05,0,0,0.05,12,0)" xlink:href="#z"/><use transform="matrix(0.05,0,0,0.05,22,0)" xlink:href="#I"/><use transform="matrix(0.05,0,0,0.05,27.950000000000003,0)" xlink:href="#y"/><use transform="matrix(0.05,0,0,0.05,36.95,0)" xlink:href="#G"/><use transform="matrix(0.05,0,0,0.05,46.95,0)" xlink:href="#J"/><use transform="matrix(0.05,0,0,0.05,56.95,0)" xlink:href="#u"/></g><path d="M30-248c118-7 216 8 213 122C240-48 200 0 122 0H30v-248zM63-27c89 8 146-16 146-99s-60-101-146-95v194" id="K"/><path d="M117-194c89-4 53 116 60 194h-32v-121c0-31-8-49-39-48C34-167 62-67 57 0H25l-1-190h30c1 10-1 24 2 32 11-22 29-35 61-36" id="L"/><path d="M179-190L93 31C79 59 56 82 12 73V49c39 6 53-20 64-50L1-190h34L92-34l54-156h33" id="M"/><g id="e"><use transform="matrix(0.05,0,0,0.05,0,0)" xlink:href="#K"/><use transform="matrix(0.05,0,0,0.05,12.950000000000001,0)" xlink:href="#x"/><use transform="matrix(0.05,0,0,0.05,16.900000000000002,0)" xlink:href="#y"/><use transform="matrix(0.05,0,0,0.05,25.900000000000002,0)" xlink:href="#A"/><use transform="matrix(0.05,0,0,0.05,30.900000000000002,0)" xlink:href="#x"/><use transform="matrix(0.05,0,0,0.05,34.85,0)" xlink:href="#G"/><use transform="matrix(0.05,0,0,0.05,44.85,0)" xlink:href="#L"/><use transform="matrix(0.05,0,0,0.05,54.85,0)" xlink:href="#z"/><use transform="matrix(0.05,0,0,0.05,64.85,0)" xlink:href="#I"/><use transform="matrix(0.05,0,0,0.05,70.8,0)" xlink:href="#M"/></g><path d="M30-248c87 1 191-15 191 75 0 78-77 80-158 76V0H30v-248zm33 125c57 0 124 11 124-50 0-59-68-47-124-48v98" id="N"/><path d="M84 4C-5 8 30-112 23-190h32v120c0 31 7 50 39 49 72-2 45-101 50-169h31l1 190h-30c-1-10 1-25-2-33-11 22-28 36-60 37" id="O"/><g id="f"><use transform="matrix(0.05,0,0,0.05,0,0)" xlink:href="#N"/><use transform="matrix(0.05,0,0,0.05,12,0)" xlink:href="#O"/><use transform="matrix(0.05,0,0,0.05,22,0)" xlink:href="#w"/><use transform="matrix(0.05,0,0,0.05,25.950000000000003,0)" xlink:href="#w"/></g><g id="g"><use transform="matrix(0.05,0,0,0.05,0,0)" xlink:href="#z"/><use transform="matrix(0.05,0,0,0.05,10,0)" xlink:href="#w"/><use transform="matrix(0.05,0,0,0.05,13.949999999999998,0)" xlink:href="#w"/></g><g id="h"><use transform="matrix(0.05,0,0,0.05,0,0)" xlink:href="#C"/><use transform="matrix(0.05,0,0,0.05,9,0)" xlink:href="#u"/><use transform="matrix(0.05,0,0,0.05,19,0)" xlink:href="#D"/><use transform="matrix(0.05,0,0,0.05,29,0)" xlink:href="#O"/><use transform="matrix(0.05,0,0,0.05,39,0)" xlink:href="#u"/><use transform="matrix(0.05,0,0,0.05,49,0)" xlink:href="#L"/><use transform="matrix(0.05,0,0,0.05,59,0)" xlink:href="#y"/><use transform="matrix(0.05,0,0,0.05,68,0)" xlink:href="#u"/><use transform="matrix(0.05,0,0,0.05,78,0)" xlink:href="#J"/></g><path d="M115-194c53 0 69 39 70 98 0 66-23 100-70 100C84 3 66-7 56-30L54 0H23l1-261h32v101c10-23 28-34 59-34zm-8 174c40 0 45-34 45-75 0-40-5-75-45-74-42 0-51 32-51 76 0 43 10 73 51 73" id="P"/><g id="i"><use transform="matrix(0.05,0,0,0.05,0,0)" xlink:href="#P"/><use transform="matrix(0.05,0,0,0.05,10,0)" xlink:href="#z"/><use transform="matrix(0.05,0,0,0.05,20,0)" xlink:href="#I"/><use transform="matrix(0.05,0,0,0.05,25.950000000000003,0)" xlink:href="#y"/><use transform="matrix(0.05,0,0,0.05,34.95,0)" xlink:href="#G"/><use transform="matrix(0.05,0,0,0.05,44.95,0)" xlink:href="#J"/><use transform="matrix(0.05,0,0,0.05,54.95,0)" xlink:href="#u"/><use transform="matrix(0.05,0,0,0.05,64.95,0)" xlink:href="#C"/></g><path d="M205 0l-28-72H64L36 0H1l101-248h38L239 0h-34zm-38-99l-47-123c-12 45-31 82-46 123h93" id="Q"/><g id="j"><use transform="matrix(0.05,0,0,0.05,0,0)" xlink:href="#Q"/><use transform="matrix(0.05,0,0,0.05,12,0)" xlink:href="#C"/><use transform="matrix(0.05,0,0,0.05,21,0)" xlink:href="#C"/><use transform="matrix(0.05,0,0,0.05,30,0)" xlink:href="#G"/><use transform="matrix(0.05,0,0,0.05,40,0)" xlink:href="#y"/><use transform="matrix(0.05,0,0,0.05,49,0)" xlink:href="#x"/><use transform="matrix(0.05,0,0,0.05,52.95,0)" xlink:href="#z"/><use transform="matrix(0.05,0,0,0.05,62.95,0)" xlink:href="#A"/><use transform="matrix(0.05,0,0,0.05,67.95,0)" xlink:href="#u"/></g><g id="k"><use transform="matrix(0.05,0,0,0.05,0,0)" xlink:href="#P"/><use transform="matrix(0.05,0,0,0.05,10,0)" xlink:href="#z"/><use transform="matrix(0.05,0,0,0.05,20,0)" xlink:href="#I"/><use transform="matrix(0.05,0,0,0.05,25.950000000000003,0)" xlink:href="#y"/><use transform="matrix(0.05,0,0,0.05,34.95,0)" xlink:href="#G"/><use transform="matrix(0.05,0,0,0.05,44.95,0)" xlink:href="#J"/><use transform="matrix(0.05,0,0,0.05,54.95,0)" xlink:href="#u"/><use transform="matrix(0.05,0,0,0.05,64.95,0)" xlink:href="#C"/></g><path d="M206 0h-36l-40-164L89 0H53L-1-190h32L70-26l43-164h34l41 164 42-164h31" id="R"/><path d="M106-169C34-169 62-67 57 0H25v-261h32l-1 103c12-21 28-36 61-36 89 0 53 116 60 194h-32v-121c2-32-8-49-39-48" id="S"/><g id="l"><use transform="matrix(0.05,0,0,0.05,0,0)" xlink:href="#R"/><use transform="matrix(0.05,0,0,0.05,12.950000000000001,0)" xlink:href="#x"/><use transform="matrix(0.05,0,0,0.05,16.900000000000002,0)" xlink:href="#A"/><use transform="matrix(0.05,0,0,0.05,21.900000000000002,0)" xlink:href="#S"/></g><g id="m"><use transform="matrix(0.05,0,0,0.05,0,0)" xlink:href="#E"/><use transform="matrix(0.05,0,0,0.05,14,0)" xlink:href="#w"/><use transform="matrix(0.05,0,0,0.05,17.95,0)" xlink:href="#x"/><use transform="matrix(0.05,0,0,0.05,21.9,0)" xlink:href="#F"/><use transform="matrix(0.05,0,0,0.05,31.899999999999995,0)" xlink:href="#G"/><use transform="matrix(0.05,0,0,0.05,41.9,0)" xlink:href="#C"/></g><path d="M240 0l2-218c-23 76-54 145-80 218h-23L58-218 59 0H30v-248h44l77 211c21-75 51-140 76-211h43V0h-30" id="T"/><path d="M143 0L79-87 56-68V0H24v-261h32v163l83-92h37l-77 82L181 0h-38" id="U"/><g id="n"><use transform="matrix(0.05,0,0,0.05,0,0)" xlink:href="#T"/><use transform="matrix(0.05,0,0,0.05,14.950000000000001,0)" xlink:href="#z"/><use transform="matrix(0.05,0,0,0.05,24.950000000000003,0)" xlink:href="#U"/><use transform="matrix(0.05,0,0,0.05,33.95,0)" xlink:href="#u"/></g><g id="o"><use transform="matrix(0.05,0,0,0.05,0,0)" xlink:href="#A"/><use transform="matrix(0.05,0,0,0.05,5,0)" xlink:href="#S"/><use transform="matrix(0.05,0,0,0.05,15,0)" xlink:href="#u"/></g><g id="p"><use transform="matrix(0.05,0,0,0.05,0,0)" xlink:href="#y"/><use transform="matrix(0.05,0,0,0.05,9,0)" xlink:href="#G"/><use transform="matrix(0.05,0,0,0.05,19,0)" xlink:href="#O"/><use transform="matrix(0.05,0,0,0.05,29,0)" xlink:href="#L"/><use transform="matrix(0.05,0,0,0.05,39,0)" xlink:href="#A"/></g><g id="q"><use transform="matrix(0.05,0,0,0.05,0,0)" xlink:href="#A"/><use transform="matrix(0.05,0,0,0.05,5,0)" xlink:href="#z"/><use transform="matrix(0.05,0,0,0.05,15,0)" xlink:href="#P"/><use transform="matrix(0.05,0,0,0.05,25,0)" xlink:href="#w"/><use transform="matrix(0.05,0,0,0.05,28.950000000000003,0)" xlink:href="#u"/></g><path d="M212-179c-10-28-35-45-73-45-59 0-87 40-87 99 0 60 29 101 89 101 43 0 62-24 78-52l27 14C228-24 195 4 139 4 59 4 22-46 18-125c-6-104 99-153 187-111 19 9 31 26 39 46" id="V"/><g id="r"><use transform="matrix(0.05,0,0,0.05,0,0)" xlink:href="#V"/><use transform="matrix(0.05,0,0,0.05,12.950000000000001,0)" xlink:href="#G"/><use transform="matrix(0.05,0,0,0.05,22.950000000000003,0)" xlink:href="#O"/><use transform="matrix(0.05,0,0,0.05,32.95,0)" xlink:href="#L"/><use transform="matrix(0.05,0,0,0.05,42.95,0)" xlink:href="#A"/></g><path d="M127-220V0H93v-220H8v-28h204v28h-85" id="W"/><g id="s"><use transform="matrix(0.05,0,0,0.05,0,0)" xlink:href="#W"/><use transform="matrix(0.05,0,0,0.05,8.950000000000001,0)" xlink:href="#z"/><use transform="matrix(0.05,0,0,0.05,18.950000000000003,0)" xlink:href="#P"/><use transform="matrix(0.05,0,0,0.05,28.950000000000003,0)" xlink:href="#w"/><use transform="matrix(0.05,0,0,0.05,32.900000000000006,0)" xlink:href="#u"/></g></defs></g></svg>